<?xml version="1.0" encoding="utf-8"?>
<!-- Generator: Adobe Illustrator 23.0.1, SVG Export Plug-In . SVG Version: 6.00 Build 0)  -->
<svg version="1.1"
	 id="svg13156" inkscape:version="0.92.0 r15299" sodipodi:docname="eventbrite.svg" xmlns:cc="http://creativecommons.org/ns#" xmlns:dc="http://purl.org/dc/elements/1.1/" xmlns:inkscape="http://www.inkscape.org/namespaces/inkscape" xmlns:rdf="http://www.w3.org/1999/02/22-rdf-syntax-ns#" xmlns:sodipodi="http://sodipodi.sourceforge.net/DTD/sodipodi-0.dtd" xmlns:svg="http://www.w3.org/2000/svg"
	 xmlns="http://www.w3.org/2000/svg" xmlns:xlink="http://www.w3.org/1999/xlink" x="0px" y="0px" viewBox="0 0 101.6 17.2"
	 style="enable-background:new 0 0 101.6 17.2;" xml:space="preserve">
<style type="text/css">
	.st0{fill:#FFFFFF;}
</style>
<g id="layer1" transform="translate(-41.124981,-182.71228)" inkscape:groupmode="layer" inkscape:label="Layer 1">
	<path id="path13136" inkscape:connector-curvature="0" class="st0" d="M119.7,183.2c0.5,0,0.9,0.2,1.2,0.5c0.3,0.3,0.5,0.8,0.5,1.3
		c0,0.5-0.2,0.9-0.5,1.2c-0.3,0.3-0.8,0.5-1.2,0.5c-0.5,0-0.9-0.2-1.2-0.5c-0.3-0.3-0.5-0.7-0.5-1.2c0-0.5,0.2-0.9,0.5-1.3
		C118.8,183.4,119.2,183.2,119.7,183.2z M97.3,183.6c0.1,0,0.3,0,0.5-0.1c0.2,0,0.4,0,0.7,0.1c0.3,0.1,0.5,0.2,0.8,0.3
		c0.2,0.2,0.4,0.4,0.6,0.8c0.2,0.4,0.2,0.8,0.2,1.3v2.5c0,0.1,0,0.1,0.1,0.1c0.6-0.3,1.4-0.5,2.3-0.5c1.6,0,2.8,0.5,3.9,1.5
		c1,1,1.5,2.3,1.5,4c0,1.8-0.6,3.3-1.7,4.3c-1.1,1.1-2.7,1.6-4.8,1.6c-1.2,0-2.6-0.2-3.9-0.6c-0.3-0.1-0.4-0.2-0.4-0.5v-14.5
		C97.2,183.7,97.3,183.6,97.3,183.6L97.3,183.6z M44,184.7h6.6c0.1,0,0.2,0.1,0.2,0.2v2.5c0,0.1-0.1,0.1-0.2,0.1h-5.9
		c-0.1,0-0.1,0.1-0.1,0.2v2.7c0,0.1,0.1,0.2,0.1,0.2H50c0.1,0,0.2,0.1,0.2,0.2v2.4c0,0.1-0.1,0.2-0.2,0.2h-5.2
		c-0.1,0-0.1,0.1-0.1,0.2v2.7c0,0.1,0,0.2,0.1,0.2h6.1c0.1,0,0.1,0,0.1,0.1c0,0.1,0.1,0.3,0.1,0.5c0,0.2,0,0.4-0.1,0.7
		c-0.1,0.3-0.2,0.5-0.3,0.7c-0.2,0.2-0.4,0.4-0.8,0.6c-0.3,0.2-0.8,0.2-1.3,0.2h-6.9c-0.1,0-0.2-0.1-0.2-0.2v-11.9
		c0-0.7,0.2-1.2,0.7-1.7C42.8,184.9,43.4,184.7,44,184.7z M88.8,185.5h2.6c0.1,0,0.1,0.1,0.1,0.1v2.5c0,0.1,0.1,0.2,0.2,0.2h2.8
		c0.1,0,0.2,0.1,0.2,0.2v2.1c0,0.1-0.1,0.1-0.2,0.1h-2.8c-0.1,0-0.2,0.1-0.2,0.1v4.2c0,1.1,0.5,1.6,1.5,1.6c0.5,0,1.1-0.1,1.7-0.4
		c0,0,0.1,0,0.1,0c0,0,0,0,0.1,0l0,0c0.2,0.2,0.3,0.4,0.3,0.8c0.1,0.3,0,0.7-0.2,1.1c-0.4,0.8-1.4,1.2-2.8,1.2c-1,0-1.9-0.3-2.6-0.8
		c-0.7-0.6-1-1.5-1-2.7v-4.3c0-0.2-0.1-0.4-0.2-0.6c-0.2-0.2-0.4-0.3-0.6-0.3h-0.6c-0.1,0-0.2,0-0.2-0.1v-2.1c0-0.1,0.1-0.2,0.2-0.2
		h1.3c0.1,0,0.1-0.1,0.1-0.2v-2.5C88.6,185.5,88.7,185.5,88.8,185.5L88.8,185.5z M124.7,185.5h2.6c0.1,0,0.1,0.1,0.1,0.1v2.5
		c0,0.1,0.1,0.2,0.2,0.2h2.8c0.1,0,0.1,0.1,0.1,0.2v2.1c0,0.1-0.1,0.1-0.1,0.1h-2.8c-0.1,0-0.1,0.1-0.2,0.1v4.2
		c0,1.1,0.5,1.6,1.5,1.6c0.5,0,1.1-0.1,1.7-0.4l0.2,0.1c0.1,0.1,0.2,0.2,0.2,0.4c0.1,0.2,0.1,0.4,0.1,0.7c0,0.3-0.1,0.5-0.2,0.8
		c-0.4,0.8-1.3,1.2-2.8,1.2c-1,0-1.9-0.3-2.6-0.8c-0.7-0.6-1-1.5-1-2.7v-4.3c0-0.2-0.1-0.4-0.2-0.6c-0.2-0.2-0.4-0.3-0.6-0.3H123
		c-0.1,0-0.1,0-0.1-0.1v-2.1c0-0.1,0-0.2,0.1-0.2h1.3c0.1,0,0.2-0.1,0.2-0.2v-2.5C124.5,185.5,124.6,185.5,124.7,185.5L124.7,185.5z
		 M60.7,188.3h2.7c0.2,0,0.2,0.1,0.1,0.3l-4,10.3c-0.1,0.2-0.1,0.2-0.2,0.2h-3.2c-0.1,0-0.2-0.1-0.2-0.2L52,188.7c0-0.1,0-0.2,0-0.2
		c0.2-0.1,0.4-0.2,0.6-0.3c0.3-0.1,0.6-0.2,0.9-0.2c0.3,0,0.7,0.1,1,0.4c0.4,0.3,0.6,0.7,0.9,1.3l2.2,6.3c0,0,0,0.1,0.1,0.1
		c0,0,0.1,0,0.1-0.1l2.6-7.5C60.5,188.3,60.6,188.3,60.7,188.3L60.7,188.3z M69.1,188c3.2,0,4.7,1.9,4.7,5.6c0,0.2-0.1,0.4-0.3,0.6
		c-0.2,0.2-0.4,0.2-0.6,0.2h-6.1c-0.1,0-0.1,0.1-0.1,0.1c0.1,0.7,0.5,1.3,1.1,1.6c0.6,0.4,1.3,0.6,2.1,0.6c1.1,0,2.2-0.2,3.3-0.7
		c0.1,0,0.1,0,0.2,0c0.1,0.1,0.2,0.3,0.2,0.6c0.1,0.2,0.1,0.5,0.1,0.8c0,0.3-0.2,0.6-0.5,0.9c-0.3,0.3-0.8,0.5-1.4,0.6
		c0,0-0.1,0-0.3,0c-0.1,0-0.3,0.1-0.5,0.1c-0.2,0-0.4,0-0.7,0.1c-0.3,0-0.5,0-0.8,0c-1.8,0-3.2-0.5-4.2-1.5c-1-1-1.5-2.4-1.5-4.1
		c0-1.8,0.5-3.2,1.5-4.2C66.2,188.6,67.5,188,69.1,188L69.1,188z M80.8,188c1.5,0,2.6,0.3,3.4,1c0.8,0.7,1.2,1.8,1.2,3.3v6.9
		c0,0.1,0,0.1-0.1,0.1c-0.1,0.1-0.3,0.1-0.5,0.1c-0.2,0-0.5,0-0.7-0.1c-0.3-0.1-0.5-0.2-0.8-0.3c-0.2-0.2-0.4-0.4-0.6-0.8
		c-0.2-0.4-0.2-0.8-0.2-1.3v-4.4c0-1.2-0.6-1.9-1.9-1.9c-0.6,0-1.3,0.1-1.9,0.2c-0.1,0-0.2,0.1-0.2,0.2v7.8c0,0.1-0.1,0.2-0.1,0.2
		h-2.6c-0.1,0-0.2-0.1-0.2-0.2v-9.8c0-0.1,0.1-0.2,0.2-0.2C77.4,188.3,79.1,188,80.8,188L80.8,188z M114,188c0.7,0,1.3,0.1,1.8,0.4
		c0.4,0.2,0.7,0.6,0.8,0.9c0.1,0.4,0.1,0.7,0.1,1c0,0.3-0.1,0.5-0.2,0.7c0,0.1-0.1,0.1-0.2,0.1c-0.5-0.2-1.2-0.3-2.1-0.3
		c-0.5,0-0.9,0.1-1.4,0.2c-0.1,0-0.1,0.1-0.1,0.1v7.8c0,0.1-0.1,0.2-0.2,0.2h-2.6c-0.1,0-0.2-0.1-0.2-0.2v-9.8c0,0,0-0.1,0-0.1
		c0,0,0-0.1,0.1-0.1c0,0,0.1-0.1,0.1-0.1l0.1,0C111.3,188.3,112.6,188,114,188L114,188z M137.5,188c3.1,0,4.7,1.9,4.7,5.6
		c0,0.2-0.1,0.4-0.3,0.6c-0.2,0.2-0.4,0.2-0.6,0.2h-6.1c-0.1,0-0.2,0.1-0.2,0.1c0.1,0.7,0.5,1.3,1.1,1.6c0.6,0.4,1.3,0.6,2.1,0.6
		c1.1,0,2.2-0.2,3.3-0.7c0.1,0,0.1,0,0.2,0c0.1,0.1,0.2,0.3,0.2,0.6c0.1,0.2,0.1,0.5,0,0.8c0,0.3-0.2,0.6-0.5,0.9
		c-0.3,0.3-0.8,0.5-1.4,0.6c0,0-0.1,0-0.3,0c-0.1,0-0.3,0.1-0.5,0.1c-0.2,0-0.4,0-0.7,0.1c-0.3,0-0.6,0-0.8,0
		c-1.8,0-3.2-0.5-4.2-1.5c-1-1-1.5-2.4-1.5-4.1c0-1.8,0.5-3.2,1.5-4.2C134.6,188.6,135.9,188,137.5,188L137.5,188z M118.4,188.3h2.6
		c0.1,0,0.2,0.1,0.2,0.2v10.7c0,0.1,0,0.1-0.1,0.1c-0.1,0.1-0.3,0.1-0.5,0.1c-0.2,0-0.5,0-0.7-0.1c-0.3-0.1-0.5-0.2-0.8-0.3
		c-0.2-0.2-0.4-0.4-0.6-0.8c-0.2-0.4-0.2-0.8-0.2-1.3v-8.5C118.3,188.3,118.3,188.3,118.4,188.3L118.4,188.3z M69,190.4
		c-0.6,0-1.1,0.2-1.5,0.6c-0.4,0.4-0.7,0.9-0.8,1.6c0,0.1,0,0.1,0,0.1c0,0,0.1,0,0.1,0h4.1c0.1,0,0.1,0,0.1-0.1
		c0-0.7-0.2-1.2-0.6-1.6C70.1,190.6,69.7,190.4,69,190.4L69,190.4z M137.4,190.4c-0.6,0-1.1,0.2-1.5,0.6c-0.4,0.4-0.7,0.9-0.8,1.6
		c0,0.1,0,0.1,0,0.1c0,0,0.1,0,0.1,0h4c0.1,0,0.1,0,0.1-0.1c0-0.7-0.2-1.2-0.6-1.6C138.5,190.6,138.1,190.4,137.4,190.4L137.4,190.4
		z M102.1,190.7c-0.7,0-1.4,0.2-1.9,0.5c0,0-0.1,0.1-0.1,0.1v5c0,0.2,0.1,0.3,0.2,0.4c0.5,0.1,1,0.2,1.2,0.2c1,0,1.8-0.3,2.4-0.8
		c0.6-0.6,0.9-1.4,0.9-2.5c0-0.8-0.3-1.5-0.8-2.1C103.6,191,102.9,190.7,102.1,190.7L102.1,190.7z"/>
</g>
</svg>
